<?xml version="1.0" standalone="no"?>
<svg version="1.0" xmlns="http://www.w3.org/2000/svg"
 width="1024.000000pt" height="1024.000000pt" viewBox="0 0 1024.000000 1024.000000"
 preserveAspectRatio="xMidYMid meet">
<g transform="translate(0.000000,1024.000000) scale(0.100000,-0.100000)"
fill="#000000" stroke="none">
<path d="M4600 9200 c-1200 -120 -2300 -700 -3100 -1600 -800 -900 -1200 -2050 -1200 -3300 0 -1250 400 -2400 1200 -3300 800 -900 1900 -1480 3100 -1600 200 -20 600 -20 800 0 1200 120 2300 700 3100 1600 800 900 1200 2050 1200 3300 0 1250 -400 2400 -1200 3300 -800 900 -1900 1480 -3100 1600 -200 20 -600 20 -800 0z"/>
</g>
</svg>